<mxfile host="app.diagrams.net" modified="2023-10-17T08:33:42.790Z" agent="Mozilla/5.0 (Windows NT 10.0; Win64; x64) AppleWebKit/537.36 (KHTML, like Gecko) Chrome/117.0.0.0 Safari/537.36" etag="YYQ5sJ_a4O638-EhcolE" version="22.0.4" type="device">
  <diagram name="第 1 页" id="haEPWIByLFNI2-BTDrvF">
    <mxGraphModel dx="2150" dy="3111" grid="1" gridSize="10" guides="1" tooltips="1" connect="1" arrows="1" fold="1" page="1" pageScale="1" pageWidth="827" pageHeight="1169" math="0" shadow="0">
      <root>
        <mxCell id="0" />
        <mxCell id="1" parent="0" />
        <mxCell id="1Pe5bWimPJKds60bQf15-1" value="index" style="rounded=0;whiteSpace=wrap;html=1;container=1;" parent="1" vertex="1">
          <mxGeometry x="-800" y="-1310" width="300" height="340" as="geometry" />
        </mxCell>
        <mxCell id="1Pe5bWimPJKds60bQf15-6" value="活動" style="whiteSpace=wrap;html=1;" parent="1Pe5bWimPJKds60bQf15-1" vertex="1">
          <mxGeometry x="30" y="39.64000000000033" width="240" height="70" as="geometry" />
        </mxCell>
        <mxCell id="o7QUKLEqrA0qC8SgY39_-2" value="文字 News" style="rounded=0;whiteSpace=wrap;html=1;" vertex="1" parent="1Pe5bWimPJKds60bQf15-1">
          <mxGeometry x="30" y="120" width="240" height="100" as="geometry" />
        </mxCell>
        <mxCell id="o7QUKLEqrA0qC8SgY39_-5" value="一些產品" style="rounded=0;whiteSpace=wrap;html=1;" vertex="1" parent="1Pe5bWimPJKds60bQf15-1">
          <mxGeometry x="30" y="250" width="60" height="60" as="geometry" />
        </mxCell>
        <mxCell id="o7QUKLEqrA0qC8SgY39_-4" value="一些產品" style="rounded=0;whiteSpace=wrap;html=1;" vertex="1" parent="1Pe5bWimPJKds60bQf15-1">
          <mxGeometry x="120" y="250" width="60" height="60" as="geometry" />
        </mxCell>
        <mxCell id="o7QUKLEqrA0qC8SgY39_-3" value="一些產品" style="rounded=0;whiteSpace=wrap;html=1;" vertex="1" parent="1Pe5bWimPJKds60bQf15-1">
          <mxGeometry x="210" y="250" width="60" height="60" as="geometry" />
        </mxCell>
        <mxCell id="o7QUKLEqrA0qC8SgY39_-12" value="top" style="rounded=0;whiteSpace=wrap;html=1;" vertex="1" parent="1Pe5bWimPJKds60bQf15-1">
          <mxGeometry x="250" y="300" width="40" height="30" as="geometry" />
        </mxCell>
        <mxCell id="1Pe5bWimPJKds60bQf15-2" value="&lt;font style=&quot;font-size: 11px;&quot;&gt;促銷首頁&amp;nbsp; 套裝主機&amp;nbsp; 筆電&amp;nbsp; 估價系統&lt;/font&gt;" style="rounded=0;whiteSpace=wrap;html=1;" parent="1" vertex="1">
          <mxGeometry x="-800" y="-1329.64" width="300" height="30" as="geometry" />
        </mxCell>
        <mxCell id="1Pe5bWimPJKds60bQf15-3" style="edgeStyle=orthogonalEdgeStyle;rounded=0;orthogonalLoop=1;jettySize=auto;html=1;exitX=0.25;exitY=0;exitDx=0;exitDy=0;entryX=0.194;entryY=-0.012;entryDx=0;entryDy=0;entryPerimeter=0;" parent="1" source="1Pe5bWimPJKds60bQf15-2" target="1Pe5bWimPJKds60bQf15-2" edge="1">
          <mxGeometry relative="1" as="geometry" />
        </mxCell>
        <mxCell id="1Pe5bWimPJKds60bQf15-5" value="login" style="whiteSpace=wrap;html=1;aspect=fixed;" parent="1" vertex="1">
          <mxGeometry x="-530" y="-1329.9999999999998" width="30" height="30" as="geometry" />
        </mxCell>
        <mxCell id="1Pe5bWimPJKds60bQf15-8" value="" style="whiteSpace=wrap;html=1;" parent="1" vertex="1">
          <mxGeometry x="-800" y="-900" width="260" height="330" as="geometry" />
        </mxCell>
        <mxCell id="1Pe5bWimPJKds60bQf15-9" value="nav" style="rounded=0;whiteSpace=wrap;html=1;" parent="1" vertex="1">
          <mxGeometry x="-800" y="-900" width="260" height="30" as="geometry" />
        </mxCell>
        <mxCell id="1Pe5bWimPJKds60bQf15-10" value="table&lt;br&gt;many many&lt;br&gt;select&lt;br&gt;選擇到select會出現產品圖片" style="whiteSpace=wrap;html=1;aspect=fixed;" parent="1" vertex="1">
          <mxGeometry x="-775" y="-860" width="220" height="220" as="geometry" />
        </mxCell>
        <mxCell id="1Pe5bWimPJKds60bQf15-11" value="合計金額&lt;br&gt;固定在網頁上" style="rounded=0;whiteSpace=wrap;html=1;" parent="1" vertex="1">
          <mxGeometry x="-775" y="-644.5" width="215" height="60" as="geometry" />
        </mxCell>
        <mxCell id="o7QUKLEqrA0qC8SgY39_-1" value="logo" style="rounded=0;whiteSpace=wrap;html=1;" vertex="1" parent="1">
          <mxGeometry x="-800" y="-1330" width="50" height="30" as="geometry" />
        </mxCell>
        <mxCell id="o7QUKLEqrA0qC8SgY39_-6" value="&#xa;&lt;span style=&quot;color: rgb(0, 0, 0); font-family: Helvetica; font-size: 12px; font-style: normal; font-variant-ligatures: normal; font-variant-caps: normal; font-weight: 400; letter-spacing: normal; orphans: 2; text-align: center; text-indent: 0px; text-transform: none; widows: 2; word-spacing: 0px; -webkit-text-stroke-width: 0px; background-color: rgb(251, 251, 251); text-decoration-thickness: initial; text-decoration-style: initial; text-decoration-color: initial; float: none; display: inline !important;&quot;&gt;一些產品&lt;/span&gt;&#xa;&#xa;" style="rounded=0;whiteSpace=wrap;html=1;" vertex="1" parent="1">
          <mxGeometry x="-473" y="-1330" width="313" height="320" as="geometry" />
        </mxCell>
        <mxCell id="o7QUKLEqrA0qC8SgY39_-7" value="nav" style="rounded=0;whiteSpace=wrap;html=1;" vertex="1" parent="1">
          <mxGeometry x="-473" y="-1329.64" width="313" height="39.64" as="geometry" />
        </mxCell>
        <mxCell id="o7QUKLEqrA0qC8SgY39_-8" value="LOGIN" style="rounded=0;whiteSpace=wrap;html=1;" vertex="1" parent="1">
          <mxGeometry x="-446.5" y="-1244.5" width="260" height="149" as="geometry" />
        </mxCell>
        <mxCell id="o7QUKLEqrA0qC8SgY39_-9" value="筆電購物牆" style="rounded=0;whiteSpace=wrap;html=1;" vertex="1" parent="1">
          <mxGeometry x="-473" y="-920" width="303" height="350" as="geometry" />
        </mxCell>
        <mxCell id="o7QUKLEqrA0qC8SgY39_-10" value="" style="rounded=0;whiteSpace=wrap;html=1;" vertex="1" parent="1">
          <mxGeometry x="-473" y="-920" width="303" height="40" as="geometry" />
        </mxCell>
        <mxCell id="o7QUKLEqrA0qC8SgY39_-13" value="top" style="rounded=0;whiteSpace=wrap;html=1;" vertex="1" parent="1">
          <mxGeometry x="-210" y="-1050" width="40" height="30" as="geometry" />
        </mxCell>
        <mxCell id="o7QUKLEqrA0qC8SgY39_-14" value="top" style="rounded=0;whiteSpace=wrap;html=1;" vertex="1" parent="1">
          <mxGeometry x="-595" y="-610" width="40" height="30" as="geometry" />
        </mxCell>
        <mxCell id="o7QUKLEqrA0qC8SgY39_-15" value="" style="whiteSpace=wrap;html=1;aspect=fixed;" vertex="1" parent="1">
          <mxGeometry x="-440" y="-850" width="70" height="70" as="geometry" />
        </mxCell>
        <mxCell id="o7QUKLEqrA0qC8SgY39_-16" value="" style="whiteSpace=wrap;html=1;aspect=fixed;" vertex="1" parent="1">
          <mxGeometry x="-350" y="-850" width="70" height="70" as="geometry" />
        </mxCell>
        <mxCell id="o7QUKLEqrA0qC8SgY39_-17" value="套裝主機購物牆" style="rounded=0;whiteSpace=wrap;html=1;" vertex="1" parent="1">
          <mxGeometry x="-130" y="-1327.5" width="320" height="375" as="geometry" />
        </mxCell>
        <mxCell id="o7QUKLEqrA0qC8SgY39_-18" value="" style="rounded=0;whiteSpace=wrap;html=1;" vertex="1" parent="1">
          <mxGeometry x="-130" y="-1327.5" width="320" height="50" as="geometry" />
        </mxCell>
        <mxCell id="o7QUKLEqrA0qC8SgY39_-19" value="" style="whiteSpace=wrap;html=1;aspect=fixed;" vertex="1" parent="1">
          <mxGeometry x="-100" y="-1244.5" width="80" height="80" as="geometry" />
        </mxCell>
        <mxCell id="o7QUKLEqrA0qC8SgY39_-20" value="" style="whiteSpace=wrap;html=1;aspect=fixed;" vertex="1" parent="1">
          <mxGeometry y="-1244.5" width="80" height="80" as="geometry" />
        </mxCell>
      </root>
    </mxGraphModel>
  </diagram>
</mxfile>
